# xmcd CD database file
#
# Track frame offsets:
#	150
#	27917
#	56740
#	86114
#	105007
#	116150
#	142879
#	166887
#	188058
#	202307
#	220445
#	246663
#	287482
#
# Disc length: 4318 seconds
#
# Revision: 0
# Processed by: cddbd v1.5.2PL0 Copyright (c) Steve Scherf et al.
# Submitted via: CDex 1.70beta2
#
DISCID=c210dc0d
DTITLE=Various Artist - All  That  Jazzy  Love  CD-3
DYEAR=1900
DGENRE=Jazz
TTITLE0=Cannonball  Adderley - Stars  Fell  On  Alabama
TTITLE1=Lou  Donaldson - Ode  To  Billie  Joe
TTITLE2=Bob  James - Feel  Like  Making  Love
TTITLE3=Duke Ellington and John Coltrane - In  A  Sentimental  Mood
TTITLE4=Jimmy  Scott - Everybody  Needs  Somebody
TTITLE5=Paquito  D'  Rivera - For  Leny ( Andrade )
TTITLE6=Mel  Torme - New  York  State  Of  Mind
TTITLE7=Stan  Getz - Samba  Triste
TTITLE8=Lee  Konitz - Memories  Of  You
TTITLE9=Eddie  " Lockjaw " - Angel  Eyes
TTITLE10=Dexter  Gordon - Body  And  Soul
TTITLE11=Hank Crawford and Jimmy Mcgriff - The  Real  Deal
TTITLE12=Ben  Webster - Soulville
EXTD=
EXTT0=
EXTT1=
EXTT2=
EXTT3=
EXTT4=
EXTT5=
EXTT6=
EXTT7=
EXTT8=
EXTT9=
EXTT10=
EXTT11=
EXTT12=
PLAYORDER=
